# xmcd
#
# Track frame offsets:
#	150
#	19524
#	38118
#	57291
#	78592
#	94839
#	116502
#	138286
#	158100
#	181657
#	200298
#	227066
#
# Disc length: 3208 seconds
# Revision: 0
# Processed by: cddbd v1.5.2PL0 Copyright (c) Steve Scherf et al.
# Submitted via: dBpowerAMP V12.0
#
DISCID=8e0c860c
DTITLE=Little Boogie Boy Bluesband - It's all in the Blues
DYEAR=2014
DGENRE=Blues/Soul-Blues
TTITLE0=Darlene
TTITLE1=Go Ahead On
TTITLE2=Please Don't Let Our Good Thing End
TTITLE3=Nickel And A Nail 
TTITLE4=I'm A Love You
TTITLE5=Just Like I Treat You
TTITLE6=Nothing Takes The Place Of You
TTITLE7=Tryin' To Find My Baby
TTITLE8=Jukin' @ The Juke Joint
TTITLE9=What It Is
TTITLE10=Hello Good Lookin'
TTITLE11=Fill It Up!
EXTD=
EXTT0=
EXTT1=
EXTT2=
EXTT3=
EXTT4=
EXTT5=
EXTT6=
EXTT7=
EXTT8=
EXTT9=
EXTT10=
EXTT11=
PLAYORDER=
